<svg id="Ebene_1" data-name="Ebene 1" xmlns="http://www.w3.org/2000/svg" viewBox="0 0 484.96864 64.22949"><defs><style>.cls-1{fill:#02dfb4;}.cls-2{fill:#fff;}</style></defs><title>logo</title><path class="cls-1" d="M16.76381,26.44727,1.13832,5.34961c-.28809-.35986.72021-2.3042,2.59229-2.3042A3.4866,3.4866,0,0,1,6.46693,4.48535l13.3208,18.50586L33.68519,4.34131c.86377-1.15186,1.584-1.51221,2.376-1.51221,1.65625,0,2.73633,1.94434,2.44824,2.3042l-16.05713,21.314L38.50941,47.689c.28809.36035-.71973,2.30469-2.59229,2.30469a3.59176,3.59176,0,0,1-2.73584-1.44043L19.42787,29.75977l-14.041,18.937c-.86426,1.15234-1.58447,1.5127-2.37646,1.5127-1.65625,0-2.73633-1.94434-2.44824-2.30371Z" transform="translate(-0.51568 -0.88525)"/><path class="cls-1" d="M59.3141,30.55176,42.75258,5.1333c-.21631-.35986.792-2.08789,2.95215-2.08789A2.9922,2.9922,0,0,1,48.153,4.70166L61.83412,26.0874,75.443,4.77344a3.09913,3.09913,0,0,1,2.44824-1.728c2.0166,0,3.09668,1.728,2.88037,2.08789L64.2101,30.55176V47.97705c0,1.5127-.71973,2.23242-2.16016,2.23242H61.402c-1.36816,0-2.08789-.71973-2.08789-2.23242Z" transform="translate(-0.51568 -0.88525)"/><path class="cls-2" d="M99.34437,6.06982A2.73508,2.73508,0,0,1,102.0807,3.3335h11.95313c10.873,0,17.13721,5.1123,17.13721,14.11328,0,9.28857-6.04834,14.3291-17.71338,14.3291h-9.2168V47.97705a2.05842,2.05842,0,0,1-2.16016,2.23242h-.64795c-1.36816,0-2.08838-.71973-2.08838-2.23242Zm14.54541,21.38574c8.13672,0,12.24072-3.45654,12.24072-9.86475,0-6.481-4.104-9.86523-12.0249-9.86523h-9.86475v19.73Z" transform="translate(-0.51568 -0.88525)"/><path class="cls-2" d="M138.43959,1.38916c0-.144.72021-.50391,1.58447-.50391,1.584,0,3.09619.792,3.09619,4.53613V21.11865A13.3,13.3,0,0,1,154.713,14.78223c9.07275,0,13.60938,6.04883,13.60938,15.12158V47.97705c0,1.72852-.86426,2.23242-2.08838,2.23242h-.50391c-1.22412,0-2.08838-.50391-2.08838-2.23242V30.19189c0-6.9126-3.45605-11.01709-9.2168-11.01709-6.76855,0-11.30469,4.6084-11.30469,11.73682V47.97705c0,1.72852-.86426,2.23242-2.08838,2.23242H140.528c-1.22412,0-2.08838-.50391-2.08838-2.23242Z" transform="translate(-0.51568 -0.88525)"/><path class="cls-2" d="M193.089,14.78223c10.22461,0,17.6416,7.63281,17.6416,18.07373,0,10.36816-7.417,17.92969-17.6416,17.92969-10.29687,0-17.71387-7.63281-17.71387-18.07324C175.37513,22.34277,182.79213,14.78223,193.089,14.78223Zm0,31.89893c7.34473,0,12.88916-5.832,12.88916-13.8252,0-7.99268-5.47266-13.96924-12.88916-13.96924-7.417,0-12.96143,5.83252-12.96143,13.82568C180.12758,40.70459,185.672,46.68115,193.089,46.68115Z" transform="translate(-0.51568 -0.88525)"/><path class="cls-2" d="M220.30336,19.82275h-3.168c-1.728,0-2.23242-.64795-2.23242-1.87207v-.43213c0-1.22412.50439-1.87207,2.23242-1.87207h3.168V9.66992c0-1.728.86426-2.23242,2.08838-2.23242h.50391c1.22412,0,2.01611.50439,2.01611,2.23242v5.97656h9.145c1.728,0,2.23242.64795,2.23242,1.87207v.43213c0,1.22412-.50439,1.87207-2.23242,1.87207h-9.145V39.33643c0,5.04,1.29639,7.417,5.11279,7.417a6.561,6.561,0,0,0,5.32813-2.52051c.144-.14355,1.58447.50391,1.58447,2.30371,0,1.94531-2.52051,4.249-7.05664,4.249-6.69678,0-9.57715-3.81641-9.57715-10.94531Z" transform="translate(-0.51568 -0.88525)"/><path class="cls-2" d="M258.10512,14.78223c10.22461,0,17.6416,7.63281,17.6416,18.07373,0,10.36816-7.417,17.92969-17.6416,17.92969-10.29687,0-17.71387-7.63281-17.71387-18.07324C240.39125,22.34277,247.80824,14.78223,258.10512,14.78223Zm0,31.89893c7.34473,0,12.88867-5.832,12.88867-13.8252,0-7.99268-5.47168-13.96924-12.88867-13.96924s-12.96143,5.83252-12.96143,13.82568C245.14369,40.70459,250.68812,46.68115,258.10512,46.68115Z" transform="translate(-0.51568 -0.88525)"/><path class="cls-2" d="M289.49574,45.88916a4.048,4.048,0,0,1-1.5127-3.3125,5.21975,5.21975,0,0,1,1.5127-3.38379c-5.18457-1.80078-8.56934-6.19336-8.56934-11.44922,0-7.12891,5.90527-12.96143,13.89746-12.96143a15.1661,15.1661,0,0,1,8.64063,2.66455l2.377-3.81641c1.00781-1.44043,1.7998-2.16016,3.31152-2.16016a2.72651,2.72651,0,0,1,2.66406,2.08789L306.12855,19.895a11.9377,11.9377,0,0,1,2.80859,7.56055c0,7.05664-6.04883,12.60059-14.11328,12.60059a15.60975,15.60975,0,0,1-1.87207-.07227,2.799,2.799,0,0,0-.50391,1.72852c0,2.377,3.24023,2.5918,9.50488,4.17676,4.89648,1.22363,10.08105,3.52832,10.08105,9.001,0,6.4082-6.48047,10.22461-17.498,10.22461-10.94434,0-16.12891-3.02441-16.12891-9.36133C278.40687,50.56982,283.23109,47.11279,289.49574,45.88916Zm5.18457,15.40918c7.84863,0,12.67285-2.23242,12.67285-6.26465,0-4.17676-6.48047-5.04-11.95312-6.4082-6.55273.36035-12.457,2.80762-12.457,7.12793C282.943,59.354,286.97523,61.29834,294.68031,61.29834Zm9.43262-33.69873c0-5.18457-3.74414-8.92871-9.36133-8.92871-5.32812,0-9.07227,3.6001-9.07227,8.92871,0,5.18408,3.81641,8.78467,9.2168,8.78467C300.36879,36.38428,304.11293,32.78369,304.11293,27.59961Z" transform="translate(-0.51568 -0.88525)"/><path class="cls-2" d="M317.07094,15.8623c0-.144.7207-.50391,1.584-.50391,1.585,0,3.02441.792,3.02441,4.53662v2.01611c1.44043-4.68066,4.46484-7.12891,9.07324-7.12891,3.168,0,4.96777,1.29639,4.96777,3.52832,0,1.728-1.15137,2.59229-1.2959,2.44824a5.95244,5.95244,0,0,0-4.17578-1.43994c-6.12109,0-8.49707,6.4082-8.49707,15.19336V47.97705c0,1.72852-.86426,2.23242-2.08789,2.23242h-.50488c-1.22363,0-2.08789-.50391-2.08789-2.23242Z" transform="translate(-0.51568 -0.88525)"/><path class="cls-2" d="M362.72133,29.47168h.7207V28.24756c0-5.90479-3.457-9.145-9.64941-9.145a11.748,11.748,0,0,0-10.94434,6.33691,2.76027,2.76027,0,0,1-2.665-2.73633c0-2.44824,4.89648-7.9209,13.96973-7.9209,8.71289,0,13.89746,5.04053,13.89746,13.32129V49.70557c0,.14355-.7207.50391-1.585.50391-1.584,0-2.95215-.792-2.95215-4.53613V44.37646a15.1821,15.1821,0,0,1-12.81641,6.33691c-7.48926,0-11.80957-3.81641-11.80957-9.57715C338.88734,33.144,346.88051,29.83154,362.72133,29.47168Zm-11.59277,17.354c7.05664,0,12.31348-4.39258,12.31348-10.51367V33.144l-2.0166.07227c-11.7373.43164-17.78516,2.51953-17.78516,7.91992C343.64027,44.59326,346.44789,46.82568,351.12855,46.82568Z" transform="translate(-0.51568 -0.88525)"/><path class="cls-2" d="M382.08754,61.87451c0,1.72852-.86426,2.23242-2.08789,2.23242h-.50488c-1.22363,0-2.08789-.50391-2.08789-2.23242V15.8623c0-.144.7207-.50391,1.584-.50391,1.585,0,3.02441.792,3.02441,4.53662v1.51172a14.90577,14.90577,0,0,1,12.81738-6.62451c9.07227,0,16.20117,7.05664,16.20117,17.93018,0,10.80078-6.98437,18.07324-16.48926,18.07324a14.30321,14.30321,0,0,1-12.457-6.55273Zm12.09668-15.19336c7.27246,0,12.09766-5.61719,12.09766-13.89746,0-8.06445-5.041-13.897-11.95312-13.897a12.78611,12.78611,0,0,0-12.31348,8.13672v8.064C382.01527,41.64014,387.70375,46.68115,394.18422,46.68115Z" transform="translate(-0.51568 -0.88525)"/><path class="cls-2" d="M418.37367,1.38916c0-.144.7207-.50391,1.584-.50391,1.585,0,3.09668.792,3.09668,4.53613V21.11865a13.3,13.3,0,0,1,11.59277-6.33643c9.07324,0,13.60938,6.04883,13.60938,15.12158V47.97705c0,1.72852-.86426,2.23242-2.08789,2.23242h-.50391c-1.22461,0-2.08887-.50391-2.08887-2.23242V30.19189c0-6.9126-3.45605-11.01709-9.2168-11.01709-6.76855,0-11.30469,4.6084-11.30469,11.73682V47.97705c0,1.72852-.86426,2.23242-2.08789,2.23242h-.50488c-1.22363,0-2.08789-.50391-2.08789-2.23242Z" transform="translate(-0.51568 -0.88525)"/><path class="cls-2" d="M453.51039,16.72656c-.07227-.28809.64844-1.36816,2.30469-1.36816,1.65527,0,2.51953.72021,3.52734,3.24023l10.873,26.85791,9.43359-26.71387c.86328-2.52,1.94336-3.38428,3.45605-3.38428,1.2959,0,2.44824,1.0083,2.376,1.22412L468.91957,61.01025c-.93555,2.52051-2.08789,3.09668-3.3125,3.09668-1.2959,0-2.51953-1.00879-2.44824-1.22461l5.76074-14.68945a2.55991,2.55991,0,0,1-2.87988-1.7998Z" transform="translate(-0.51568 -0.88525)"/></svg>