<?xml version="1.0" encoding="utf-8"?>
<!-- Generator: Adobe Illustrator 22.1.0, SVG Export Plug-In . SVG Version: 6.00 Build 0)  -->
<svg version="1.1" id="Ebene_1" xmlns="http://www.w3.org/2000/svg" xmlns:xlink="http://www.w3.org/1999/xlink" x="0px" y="0px"
	 viewBox="0 0 485 64.2" style="enable-background:new 0 0 485 64.2;" xml:space="preserve">
<style type="text/css">
	.st0{fill:#02DFB4;}
	.st1{fill:#FFFFFF;}
</style>
<title>logo</title>
<path class="st0" d="M16.2,25.6L0.6,4.5C0.3,4.1,1.3,2.2,3.2,2.2c1.1,0,2.1,0.6,2.7,1.4l13.3,18.5L33.2,3.5c0.9-1.2,1.6-1.5,2.4-1.5
	c1.7,0,2.7,1.9,2.4,2.3L21.9,25.6L38,46.8c0.3,0.4-0.7,2.3-2.6,2.3c-1.1,0-2.1-0.6-2.7-1.4L18.9,28.9l-14,18.9
	C4,49,3.3,49.3,2.5,49.3c-1.7,0-2.7-1.9-2.4-2.3L16.2,25.6z"/>
<path class="st0" d="M58.8,29.7L42.2,4.2c-0.2-0.4,0.8-2.1,3-2.1c1.1,0.1,2,0.7,2.4,1.7l13.7,21.4L74.9,3.9c0.5-1,1.4-1.6,2.4-1.7
	c2,0,3.1,1.7,2.9,2.1L63.7,29.7v17.4c0,1.5-0.7,2.2-2.2,2.2h-0.6c-1.4,0-2.1-0.7-2.1-2.2L58.8,29.7z"/>
<path class="st1" d="M98.8,5.2c0-1.5,1.2-2.7,2.7-2.7c0,0,0,0,0,0h12c10.9,0,17.1,5.1,17.1,14.1c0,9.3-6,14.3-17.7,14.3h-9.2v16.2
	c0.1,1.1-0.7,2.1-1.9,2.2c-0.1,0-0.2,0-0.3,0h-0.6c-1.4,0-2.1-0.7-2.1-2.2L98.8,5.2z M113.4,26.6c8.1,0,12.2-3.5,12.2-9.9
	c0-6.5-4.1-9.9-12-9.9h-9.9v19.7L113.4,26.6z"/>
<path class="st1" d="M137.9,0.5c0-0.1,0.7-0.5,1.6-0.5c1.6,0,3.1,0.8,3.1,4.5v15.7c2.5-4,6.9-6.4,11.6-6.3c9.1,0,13.6,6,13.6,15.1
	v18.1c0,1.7-0.9,2.2-2.1,2.2h-0.5c-1.2,0-2.1-0.5-2.1-2.2V29.3c0-6.9-3.5-11-9.2-11c-6.8,0-11.3,4.6-11.3,11.7v17.1
	c0,1.7-0.9,2.2-2.1,2.2H140c-1.2,0-2.1-0.5-2.1-2.2L137.9,0.5z"/>
<path class="st1" d="M192.6,13.9c10.2,0,17.6,7.6,17.6,18.1c0,10.4-7.4,17.9-17.6,17.9c-10.3,0-17.7-7.6-17.7-18.1
	C174.9,21.5,182.3,13.9,192.6,13.9z M192.6,45.8c7.3,0,12.9-5.8,12.9-13.8c0-8-5.5-14-12.9-14c-7.4,0-13,5.8-13,13.8
	C179.6,39.8,185.2,45.8,192.6,45.8L192.6,45.8z"/>
<path class="st1" d="M219.8,18.9h-3.2c-1.7,0-2.2-0.6-2.2-1.9v-0.4c0-1.2,0.5-1.9,2.2-1.9h3.2v-6c0-1.7,0.9-2.2,2.1-2.2h0.5
	c1.2,0,2,0.5,2,2.2v6h9.1c1.7,0,2.2,0.6,2.2,1.9v0.4c0,1.2-0.5,1.9-2.2,1.9h-9.1v19.5c0,5,1.3,7.4,5.1,7.4c2.1,0,4.1-0.9,5.3-2.5
	c0.1-0.1,1.6,0.5,1.6,2.3c0,1.9-2.5,4.2-7.1,4.2c-6.7,0-9.6-3.8-9.6-10.9V18.9z"/>
<path class="st1" d="M257.6,13.9c10.2,0,17.6,7.6,17.6,18.1c0,10.4-7.4,17.9-17.6,17.9c-10.3,0-17.7-7.6-17.7-18.1
	C239.9,21.5,247.3,13.9,257.6,13.9z M257.6,45.8c7.3,0,12.9-5.8,12.9-13.8c0-8-5.5-14-12.9-14s-13,5.8-13,13.8
	C244.6,39.8,250.2,45.8,257.6,45.8L257.6,45.8z"/>
<path class="st1" d="M289,45c-1-0.8-1.6-2-1.5-3.3c0.1-1.3,0.6-2.5,1.5-3.4c-5.2-1.8-8.6-6.2-8.6-11.4c0-7.1,5.9-13,13.9-13
	c3.1,0,6.1,0.9,8.6,2.7l2.4-3.8c1-1.4,1.8-2.2,3.3-2.2c1.3,0,2.4,0.9,2.7,2.1l-5.7,6.3c1.8,2.1,2.8,4.8,2.8,7.6
	c0,7.1-6,12.6-14.1,12.6c-0.6,0-1.3,0-1.9-0.1c-0.4,0.5-0.5,1.1-0.5,1.7c0,2.4,3.2,2.6,9.5,4.2c4.9,1.2,10.1,3.5,10.1,9
	c0,6.4-6.5,10.2-17.5,10.2c-10.9,0-16.1-3-16.1-9.4C277.9,49.7,282.7,46.2,289,45z M294.2,60.4c7.8,0,12.7-2.2,12.7-6.3
	c0-4.2-6.5-5-12-6.4c-6.6,0.4-12.5,2.8-12.5,7.1C282.4,58.5,286.5,60.4,294.2,60.4z M303.6,26.7c0-5.2-3.7-8.9-9.4-8.9
	c-5.3,0-9.1,3.6-9.1,8.9c0,5.2,3.8,8.8,9.2,8.8C299.9,35.5,303.6,31.9,303.6,26.7z"/>
<path class="st1" d="M316.6,15c0-0.1,0.7-0.5,1.6-0.5c1.6,0,3,0.8,3,4.5v2c1.4-4.7,4.5-7.1,9.1-7.1c3.2,0,5,1.3,5,3.5
	c0,1.7-1.2,2.6-1.3,2.4c-1.2-1-2.7-1.5-4.2-1.4c-6.1,0-8.5,6.4-8.5,15.2v13.5c0,1.7-0.9,2.2-2.1,2.2h-0.5c-1.2,0-2.1-0.5-2.1-2.2
	L316.6,15z"/>
<path class="st1" d="M362.2,28.6h0.7v-1.2c0-5.9-3.5-9.1-9.6-9.1c-4.6-0.2-8.8,2.3-10.9,6.3c-1.5-0.1-2.7-1.3-2.7-2.7
	c0-2.4,4.9-7.9,14-7.9c8.7,0,13.9,5,13.9,13.3v21.6c0,0.1-0.7,0.5-1.6,0.5c-1.6,0-3-0.8-3-4.5v-1.3c-2.9,4.1-7.8,6.5-12.8,6.3
	c-7.5,0-11.8-3.8-11.8-9.6C338.4,32.3,346.4,28.9,362.2,28.6z M350.6,45.9c7.1,0,12.3-4.4,12.3-10.5v-3.2l-2,0.1
	c-11.7,0.4-17.8,2.5-17.8,7.9C343.1,43.7,345.9,45.9,350.6,45.9L350.6,45.9z"/>
<path class="st1" d="M381.6,61c0,1.7-0.9,2.2-2.1,2.2H379c-1.2,0-2.1-0.5-2.1-2.2V15c0-0.1,0.7-0.5,1.6-0.5c1.6,0,3,0.8,3,4.5v1.5
	c2.8-4.3,7.7-6.8,12.8-6.6c9.1,0,16.2,7.1,16.2,17.9c0,10.8-7,18.1-16.5,18.1c-5,0.2-9.7-2.3-12.5-6.6L381.6,61z M393.7,45.8
	c7.3,0,12.1-5.6,12.1-13.9c0-8.1-5-13.9-12-13.9c-5.4-0.2-10.3,3.1-12.3,8.1v8.1C381.5,40.8,387.2,45.8,393.7,45.8z"/>
<path class="st1" d="M417.9,0.5c0-0.1,0.7-0.5,1.6-0.5c1.6,0,3.1,0.8,3.1,4.5v15.7c2.5-4,6.9-6.4,11.6-6.3c9.1,0,13.6,6,13.6,15.1
	v18.1c0,1.7-0.9,2.2-2.1,2.2h-0.5c-1.2,0-2.1-0.5-2.1-2.2V29.3c0-6.9-3.5-11-9.2-11c-6.8,0-11.3,4.6-11.3,11.7v17.1
	c0,1.7-0.9,2.2-2.1,2.2h-0.5c-1.2,0-2.1-0.5-2.1-2.2L417.9,0.5z"/>
<path class="st1" d="M453,15.8c-0.1-0.3,0.6-1.4,2.3-1.4c1.7,0,2.5,0.7,3.5,3.2l10.9,26.9l9.4-26.7c0.9-2.5,1.9-3.4,3.5-3.4
	c1.3,0,2.4,1,2.4,1.2l-16.6,44.4c-0.9,2.5-2.1,3.1-3.3,3.1c-1.3,0-2.5-1-2.4-1.2l5.8-14.7c-1.3,0.2-2.5-0.6-2.9-1.8L453,15.8z"/>
</svg>
